<svg xmlns="http://www.w3.org/2000/svg" width="38.658" height="50.866" viewBox="0 0 38.658 50.866">
  <g id="Icon_ionic-ios-document" data-name="Icon ionic-ios-document" transform="translate(-7.313 -3.938)">
    <path id="Path_11" data-name="Path 11" d="M23.018,16.521H34.59a.63.63,0,0,0,.636-.636h0a3.764,3.764,0,0,0-1.361-2.912l-9.7-8.088a4.084,4.084,0,0,0-2.62-.941h0a.939.939,0,0,0-.941.941v9.22A2.415,2.415,0,0,0,23.018,16.521Z" transform="translate(10.745 0.006)"/>
    <path id="Path_12" data-name="Path 12" d="M28.041,14.111V3.937H11.382A4.081,4.081,0,0,0,7.312,8.007V50.735A4.081,4.081,0,0,0,11.382,54.8H41.9a4.081,4.081,0,0,0,4.069-4.069v-30.9H33.763A5.731,5.731,0,0,1,28.041,14.111Z" transform="translate(0 0)"/>
  </g>
</svg>
