<svg xmlns="http://www.w3.org/2000/svg" width="17.431" height="17.431" viewBox="0 0 17.431 17.431">
  <path id="Icon_awesome-phone-square-alt" data-name="Icon awesome-phone-square-alt" d="M15.564,2.25H1.868A1.868,1.868,0,0,0,0,4.118v13.7a1.868,1.868,0,0,0,1.868,1.868h13.7a1.868,1.868,0,0,0,1.868-1.868V4.118A1.868,1.868,0,0,0,15.564,2.25Zm-.638,11.959-.584,2.529a.584.584,0,0,1-.568.453A11.284,11.284,0,0,1,2.49,5.907a.611.611,0,0,1,.453-.568l2.529-.584A.709.709,0,0,1,5.6,4.74a.633.633,0,0,1,.537.354L7.307,7.817a.7.7,0,0,1,.047.23A.661.661,0,0,1,7.14,8.5L5.666,9.705a9.023,9.023,0,0,0,4.31,4.31l1.206-1.474a.661.661,0,0,1,.452-.214.7.7,0,0,1,.23.047l2.724,1.167a.632.632,0,0,1,.354.537.677.677,0,0,1-.015.131Z" transform="translate(0 -2.25)"/>
</svg>
