<svg id="Icon_ionic-ios-mail" data-name="Icon ionic-ios-mail" xmlns="http://www.w3.org/2000/svg" width="20.976" height="15.627" viewBox="0 0 20.976 15.627">
  <path id="Path_1" data-name="Path 1" d="M24.179,10.347l-5.425,5.877a.108.108,0,0,0,0,.15l3.8,4.3a.727.727,0,0,1,0,.987.63.63,0,0,1-.928,0l-3.782-4.284a.1.1,0,0,0-.146,0l-.923,1a3.944,3.944,0,0,1-2.894,1.3,4.025,4.025,0,0,1-2.955-1.335l-.887-.96a.1.1,0,0,0-.146,0L6.108,21.66a.63.63,0,0,1-.928,0,.727.727,0,0,1,0-.987l3.8-4.3a.12.12,0,0,0,0-.15l-5.43-5.877a.1.1,0,0,0-.171.075V22.18A1.672,1.672,0,0,0,4.989,23.9H22.737a1.672,1.672,0,0,0,1.614-1.716V10.422A.1.1,0,0,0,24.179,10.347Z" transform="translate(-3.375 -8.269)"/>
  <path id="Path_2" data-name="Path 2" d="M14,18.667a2.526,2.526,0,0,0,1.951-.967l7.829-9.413a1.428,1.428,0,0,0-.988-.413H5.214a1.419,1.419,0,0,0-.988.413L12.055,17.7A2.527,2.527,0,0,0,14,18.667Z" transform="translate(-3.513 -7.875)"/>
</svg>
