<svg xmlns="http://www.w3.org/2000/svg" width="17.26" height="24.266" viewBox="0 0 17.26 24.266">
  <path id="Icon_simple-protonmail" data-name="Icon simple-protonmail" d="M13.828,20.579a4.738,4.738,0,0,1-1.977-.713c-.87-.6-6.653-4.74-6.653-4.74v8.188a1.026,1.026,0,0,0,1.1.954H21.361a1.026,1.026,0,0,0,1.1-.952v-8.19s-5.787,4.138-6.653,4.742A4.766,4.766,0,0,1,13.828,20.579ZM13.828,0S6.674-.232,5.2,7.71v5.41s.061.578,1.689,1.754,5.837,4.485,6.944,4.485,5.313-3.309,6.941-4.486,1.687-1.756,1.687-1.756V7.707C20.981-.23,13.828,0,13.828,0Zm4.9,10.653H8.93V7.71a5.268,5.268,0,0,1,4.9-4,5.269,5.269,0,0,1,4.9,4Z" transform="translate(-5.197 -0.002)"/>
</svg>
